<mxfile host="Electron" agent="Mozilla/5.0 (X11; Linux x86_64) AppleWebKit/537.36 (KHTML, like Gecko) draw.io/24.7.5 Chrome/126.0.6478.234 Electron/31.4.0 Safari/537.36" version="24.7.5">
  <diagram name="Page-1" id="_odaqCPm4Noh0a8NVoBN">
    <mxGraphModel dx="454" dy="329" grid="1" gridSize="10" guides="1" tooltips="1" connect="1" arrows="1" fold="1" page="1" pageScale="1" pageWidth="827" pageHeight="1169" math="0" shadow="0">
      <root>
        <mxCell id="0" />
        <mxCell id="1" parent="0" />
        <mxCell id="U30LNYfx5WVIQ9Vo_gsK-1" value="" style="rounded=0;whiteSpace=wrap;html=1;" vertex="1" parent="1">
          <mxGeometry x="360" y="200" width="120" height="290" as="geometry" />
        </mxCell>
        <mxCell id="U30LNYfx5WVIQ9Vo_gsK-2" value="Decoder&lt;div&gt;3x8&lt;/div&gt;" style="text;html=1;align=center;verticalAlign=middle;whiteSpace=wrap;rounded=0;" vertex="1" parent="1">
          <mxGeometry x="360" y="240" width="120" height="40" as="geometry" />
        </mxCell>
        <mxCell id="U30LNYfx5WVIQ9Vo_gsK-3" value="&lt;font style=&quot;font-size: 10px;&quot;&gt;Y7&lt;/font&gt;" style="text;html=1;align=center;verticalAlign=middle;whiteSpace=wrap;rounded=0;" vertex="1" parent="1">
          <mxGeometry x="512" y="225" width="60" height="30" as="geometry" />
        </mxCell>
        <mxCell id="U30LNYfx5WVIQ9Vo_gsK-4" value="&lt;font style=&quot;font-size: 10px;&quot;&gt;Y6&lt;/font&gt;" style="text;html=1;align=center;verticalAlign=middle;whiteSpace=wrap;rounded=0;" vertex="1" parent="1">
          <mxGeometry x="512" y="255" width="60" height="30" as="geometry" />
        </mxCell>
        <mxCell id="U30LNYfx5WVIQ9Vo_gsK-5" value="&lt;font style=&quot;font-size: 10px;&quot;&gt;Y5&lt;/font&gt;" style="text;html=1;align=center;verticalAlign=middle;whiteSpace=wrap;rounded=0;" vertex="1" parent="1">
          <mxGeometry x="512" y="285" width="60" height="30" as="geometry" />
        </mxCell>
        <mxCell id="U30LNYfx5WVIQ9Vo_gsK-6" value="&lt;font style=&quot;font-size: 10px;&quot;&gt;Y4&lt;/font&gt;" style="text;html=1;align=center;verticalAlign=middle;whiteSpace=wrap;rounded=0;" vertex="1" parent="1">
          <mxGeometry x="512" y="315" width="60" height="30" as="geometry" />
        </mxCell>
        <mxCell id="U30LNYfx5WVIQ9Vo_gsK-8" value="&lt;font style=&quot;font-size: 10px;&quot;&gt;Y2&lt;/font&gt;" style="text;html=1;align=center;verticalAlign=middle;whiteSpace=wrap;rounded=0;" vertex="1" parent="1">
          <mxGeometry x="512" y="375" width="60" height="30" as="geometry" />
        </mxCell>
        <mxCell id="U30LNYfx5WVIQ9Vo_gsK-9" value="&lt;font style=&quot;font-size: 10px;&quot;&gt;Y1&lt;/font&gt;" style="text;html=1;align=center;verticalAlign=middle;whiteSpace=wrap;rounded=0;" vertex="1" parent="1">
          <mxGeometry x="512" y="405" width="60" height="30" as="geometry" />
        </mxCell>
        <mxCell id="U30LNYfx5WVIQ9Vo_gsK-10" value="&lt;font style=&quot;font-size: 10px;&quot;&gt;Y0&lt;/font&gt;" style="text;html=1;align=center;verticalAlign=middle;whiteSpace=wrap;rounded=0;" vertex="1" parent="1">
          <mxGeometry x="512" y="435" width="60" height="30" as="geometry" />
        </mxCell>
        <mxCell id="U30LNYfx5WVIQ9Vo_gsK-11" value="&lt;font style=&quot;font-size: 10px;&quot;&gt;Y3&lt;/font&gt;" style="text;html=1;align=center;verticalAlign=middle;whiteSpace=wrap;rounded=0;" vertex="1" parent="1">
          <mxGeometry x="512" y="345" width="60" height="30" as="geometry" />
        </mxCell>
        <mxCell id="U30LNYfx5WVIQ9Vo_gsK-12" value="&lt;font style=&quot;font-size: 10px;&quot;&gt;A1&lt;/font&gt;" style="text;html=1;align=center;verticalAlign=middle;whiteSpace=wrap;rounded=0;" vertex="1" parent="1">
          <mxGeometry x="290" y="331" width="40" height="30" as="geometry" />
        </mxCell>
        <mxCell id="U30LNYfx5WVIQ9Vo_gsK-13" value="&lt;font style=&quot;font-size: 10px;&quot;&gt;A2&lt;/font&gt;" style="text;html=1;align=center;verticalAlign=middle;whiteSpace=wrap;rounded=0;" vertex="1" parent="1">
          <mxGeometry x="290" y="301" width="40" height="30" as="geometry" />
        </mxCell>
        <mxCell id="U30LNYfx5WVIQ9Vo_gsK-14" value="&lt;font style=&quot;font-size: 10px;&quot;&gt;A0&lt;/font&gt;" style="text;html=1;align=center;verticalAlign=middle;whiteSpace=wrap;rounded=0;" vertex="1" parent="1">
          <mxGeometry x="290" y="361" width="40" height="30" as="geometry" />
        </mxCell>
        <mxCell id="U30LNYfx5WVIQ9Vo_gsK-15" value="" style="endArrow=none;html=1;rounded=0;exitX=0.01;exitY=0.403;exitDx=0;exitDy=0;exitPerimeter=0;" edge="1" parent="1">
          <mxGeometry width="50" height="50" relative="1" as="geometry">
            <mxPoint x="360.20000000000005" y="316.87" as="sourcePoint" />
            <mxPoint x="319" y="316.95751633986924" as="targetPoint" />
          </mxGeometry>
        </mxCell>
        <mxCell id="U30LNYfx5WVIQ9Vo_gsK-16" value="" style="endArrow=none;html=1;rounded=0;exitX=0.01;exitY=0.403;exitDx=0;exitDy=0;exitPerimeter=0;" edge="1" parent="1">
          <mxGeometry width="50" height="50" relative="1" as="geometry">
            <mxPoint x="361" y="347" as="sourcePoint" />
            <mxPoint x="320" y="347" as="targetPoint" />
          </mxGeometry>
        </mxCell>
        <mxCell id="U30LNYfx5WVIQ9Vo_gsK-17" value="" style="endArrow=none;html=1;rounded=0;exitX=0.01;exitY=0.403;exitDx=0;exitDy=0;exitPerimeter=0;" edge="1" parent="1">
          <mxGeometry width="50" height="50" relative="1" as="geometry">
            <mxPoint x="361" y="377" as="sourcePoint" />
            <mxPoint x="320" y="377" as="targetPoint" />
          </mxGeometry>
        </mxCell>
        <mxCell id="U30LNYfx5WVIQ9Vo_gsK-18" value="" style="endArrow=none;html=1;rounded=0;exitX=0.01;exitY=0.403;exitDx=0;exitDy=0;exitPerimeter=0;" edge="1" parent="1">
          <mxGeometry width="50" height="50" relative="1" as="geometry">
            <mxPoint x="522.2" y="239.87" as="sourcePoint" />
            <mxPoint x="481" y="239.95751633986924" as="targetPoint" />
          </mxGeometry>
        </mxCell>
        <mxCell id="U30LNYfx5WVIQ9Vo_gsK-19" value="" style="endArrow=none;html=1;rounded=0;exitX=0.01;exitY=0.403;exitDx=0;exitDy=0;exitPerimeter=0;" edge="1" parent="1">
          <mxGeometry width="50" height="50" relative="1" as="geometry">
            <mxPoint x="522.2" y="269.87" as="sourcePoint" />
            <mxPoint x="481" y="269.95751633986924" as="targetPoint" />
          </mxGeometry>
        </mxCell>
        <mxCell id="U30LNYfx5WVIQ9Vo_gsK-20" value="" style="endArrow=none;html=1;rounded=0;exitX=0.01;exitY=0.403;exitDx=0;exitDy=0;exitPerimeter=0;" edge="1" parent="1">
          <mxGeometry width="50" height="50" relative="1" as="geometry">
            <mxPoint x="522.2" y="299.87" as="sourcePoint" />
            <mxPoint x="481" y="299.95751633986924" as="targetPoint" />
          </mxGeometry>
        </mxCell>
        <mxCell id="U30LNYfx5WVIQ9Vo_gsK-21" value="" style="endArrow=none;html=1;rounded=0;exitX=0.01;exitY=0.403;exitDx=0;exitDy=0;exitPerimeter=0;" edge="1" parent="1">
          <mxGeometry width="50" height="50" relative="1" as="geometry">
            <mxPoint x="522.2" y="329.87" as="sourcePoint" />
            <mxPoint x="481" y="329.95751633986924" as="targetPoint" />
          </mxGeometry>
        </mxCell>
        <mxCell id="U30LNYfx5WVIQ9Vo_gsK-22" value="" style="endArrow=none;html=1;rounded=0;exitX=0.01;exitY=0.403;exitDx=0;exitDy=0;exitPerimeter=0;" edge="1" parent="1">
          <mxGeometry width="50" height="50" relative="1" as="geometry">
            <mxPoint x="522.2" y="359.87" as="sourcePoint" />
            <mxPoint x="481" y="359.95751633986924" as="targetPoint" />
          </mxGeometry>
        </mxCell>
        <mxCell id="U30LNYfx5WVIQ9Vo_gsK-23" value="" style="endArrow=none;html=1;rounded=0;exitX=0.01;exitY=0.403;exitDx=0;exitDy=0;exitPerimeter=0;" edge="1" parent="1">
          <mxGeometry width="50" height="50" relative="1" as="geometry">
            <mxPoint x="522.2" y="389.87" as="sourcePoint" />
            <mxPoint x="481" y="389.95751633986924" as="targetPoint" />
          </mxGeometry>
        </mxCell>
        <mxCell id="U30LNYfx5WVIQ9Vo_gsK-24" value="" style="endArrow=none;html=1;rounded=0;exitX=0.01;exitY=0.403;exitDx=0;exitDy=0;exitPerimeter=0;" edge="1" parent="1">
          <mxGeometry width="50" height="50" relative="1" as="geometry">
            <mxPoint x="522.2" y="419.87" as="sourcePoint" />
            <mxPoint x="481" y="419.95751633986924" as="targetPoint" />
          </mxGeometry>
        </mxCell>
        <mxCell id="U30LNYfx5WVIQ9Vo_gsK-25" value="" style="endArrow=none;html=1;rounded=0;exitX=0.01;exitY=0.403;exitDx=0;exitDy=0;exitPerimeter=0;" edge="1" parent="1">
          <mxGeometry width="50" height="50" relative="1" as="geometry">
            <mxPoint x="522.2" y="449.87" as="sourcePoint" />
            <mxPoint x="481" y="449.95751633986924" as="targetPoint" />
          </mxGeometry>
        </mxCell>
      </root>
    </mxGraphModel>
  </diagram>
</mxfile>
